{
  "asset": {
    "version": "2.0",
    "generator": "THREE.GLTFExporter"
  },
  "scenes": [
    {
      "name": "AuxScene",
      "nodes": [
        2
      ]
    }
  ],
  "scene": 0,
  "nodes": [
    {
      "matrix": [
        0.5,
        0,
        0,
        0,
        0,
        0.5,
        0,
        0,
        0,
        0,
        0.5,
        0,
        0,
        0,
        0,
        1
      ],
      "name": "outer",
      "extras": {
        "name": "Mesh_0.001"
      },
      "mesh": 0
    },
    {
      "matrix": [
        0.4000000059604645,
        0,
        0,
        0,
        0,
        0.025000005960464478,
        0,
        0,
        0,
        0,
        0.050000011920928955,
        0,
        0,
        0,
        0,
        1
      ],
      "name": "inner",
      "extras": {
        "name": "Mesh_1"
      },
      "mesh": 1
    },
    {
      "children": [
        0,
        1
      ]
    }
  ],
  "bufferViews": [
    {
      "buffer": 0,
      "byteOffset": 0,
      "byteLength": 284568,
      "target": 34962,
      "byteStride": 12
    },
    {
      "buffer": 0,
      "byteOffset": 284568,
      "byteLength": 284568,
      "target": 34962,
      "byteStride": 12
    },
    {
      "buffer": 0,
      "byteOffset": 569136,
      "byteLength": 189712,
      "target": 34962,
      "byteStride": 8
    },
    {
      "buffer": 0,
      "byteOffset": 758848,
      "byteLength": 248832,
      "target": 34963
    },
    {
      "buffer": 0,
      "byteOffset": 1007680,
      "byteLength": 646260,
      "target": 34962,
      "byteStride": 12
    },
    {
      "buffer": 0,
      "byteOffset": 1653940,
      "byteLength": 646260,
      "target": 34962,
      "byteStride": 12
    },
    {
      "buffer": 0,
      "byteOffset": 2300200,
      "byteLength": 430840,
      "target": 34962,
      "byteStride": 8
    },
    {
      "buffer": 0,
      "byteOffset": 2731040,
      "byteLength": 230400,
      "target": 34963
    }
  ],
  "buffers": [
    {
      "byteLength": 2961440,
      "uri": "data:application/octet-stream;base64,"
    }
  ],
  "accessors": [
    {
      "bufferView": 0,
      "componentType": 5126,
      "count": 23714,
      "max": [
        1.0846748352050781,
        10.03543758392334,
        1.0846748352050781
      ],
      "min": [
        -1.0846748352050781,
        -0.03543755039572716,
        -1.0846748352050781
      ],
      "type": "VEC3"
    },
    {
      "bufferView": 1,
      "componentType": 5126,
      "count": 23714,
      "max": [
        1,
        0.9989714622497559,
        1
      ],
      "min": [
        -1,
        -0.9989720582962036,
        -1
      ],
      "type": "VEC3"
    },
    {
      "bufferView": 2,
      "componentType": 5126,
      "count": 23714,
      "max": [
        3.500000476837158,
        1.0000001192092896
      ],
      "min": [
        0,
        0
      ],
      "type": "VEC2"
    },
    {
      "bufferView": 3,
      "componentType": 5123,
      "count": 124416,
      "max": [
        23713
      ],
      "min": [
        0
      ],
      "type": "SCALAR"
    },
    {
      "bufferView": 4,
      "componentType": 5126,
      "count": 53855,
      "max": [
        1.2500004768371582,
        197.45001220703125,
        10.000001907348633
      ],
      "min": [
        -1.2500004768371582,
        -1.3375004529953003,
        -10.00000286102295
      ],
      "type": "VEC3"
    },
    {
      "bufferView": 5,
      "componentType": 5126,
      "count": 53855,
      "max": [
        1.0000001192092896,
        1.0000001192092896,
        1.0000001192092896
      ],
      "min": [
        -1.0000001192092896,
        -1.0000001192092896,
        -1.0000001192092896
      ],
      "type": "VEC3"
    },
    {
      "bufferView": 6,
      "componentType": 5126,
      "count": 53855,
      "max": [
        0.8750002384185791,
        1.000000238418579
      ],
      "min": [
        0.1250000298023224,
        0
      ],
      "type": "VEC2"
    },
    {
      "bufferView": 7,
      "componentType": 5123,
      "count": 115200,
      "max": [
        53854
      ],
      "min": [
        0
      ],
      "type": "SCALAR"
    }
  ],
  "materials": [
    {
      "pbrMetallicRoughness": {
        "baseColorFactor": [
          0.9058823529411765,
          0.7019607843137254,
          0.4196078431372549,
          1
        ],
        "metallicFactor": 0,
        "roughnessFactor": 0.9
      },
      "extensions": {
        "KHR_materials_unlit": {}
      }
    },
    {
      "pbrMetallicRoughness": {
        "baseColorFactor": [
          0.9058823529411765,
          0.9058823529411765,
          0.9058823529411765,
          1
        ],
        "metallicFactor": 0,
        "roughnessFactor": 0.9
      },
      "extensions": {
        "KHR_materials_unlit": {}
      }
    }
  ],
  "meshes": [
    {
      "primitives": [
        {
          "mode": 4,
          "attributes": {
            "POSITION": 0,
            "NORMAL": 1,
            "TEXCOORD_0": 2
          },
          "indices": 3,
          "material": 0
        }
      ]
    },
    {
      "primitives": [
        {
          "mode": 4,
          "attributes": {
            "POSITION": 4,
            "NORMAL": 5,
            "TEXCOORD_0": 6
          },
          "indices": 7,
          "material": 1
        }
      ]
    }
  ],
  "extensionsUsed": [
    "KHR_materials_unlit"
  ]
}